<?xml version="1.0" standalone="no"?>
<svg xmlns:xlink="http://www.w3.org/1999/xlink" id="wave" style="transform:rotate(0deg); transition: 0.3s" viewBox="0 0 1440 490" version="1.1" xmlns="http://www.w3.org/2000/svg"><defs><linearGradient id="sw-gradient-0" x1="0" x2="0" y1="1" y2="0"><stop stop-color="rgba(140, 146, 172, 1)" offset="0%"/><stop stop-color="rgba(126, 84, 217, 1)" offset="100%"/></linearGradient></defs><path style="transform:translate(0, 0px); opacity:1" fill="url(#sw-gradient-0)" d="M0,147L26.7,171.5C53.3,196,107,245,160,220.5C213.3,196,267,98,320,65.3C373.3,33,427,65,480,114.3C533.3,163,587,229,640,269.5C693.3,310,747,327,800,334.8C853.3,343,907,343,960,318.5C1013.3,294,1067,245,1120,212.3C1173.3,180,1227,163,1280,163.3C1333.3,163,1387,180,1440,204.2C1493.3,229,1547,261,1600,277.7C1653.3,294,1707,294,1760,277.7C1813.3,261,1867,229,1920,196C1973.3,163,2027,131,2080,114.3C2133.3,98,2187,98,2240,147C2293.3,196,2347,294,2400,343C2453.3,392,2507,392,2560,392C2613.3,392,2667,392,2720,383.8C2773.3,376,2827,359,2880,310.3C2933.3,261,2987,180,3040,122.5C3093.3,65,3147,33,3200,57.2C3253.3,82,3307,163,3360,171.5C3413.3,180,3467,114,3520,138.8C3573.3,163,3627,278,3680,269.5C3733.3,261,3787,131,3813,65.3L3840,0L3840,490L3813.3,490C3786.7,490,3733,490,3680,490C3626.7,490,3573,490,3520,490C3466.7,490,3413,490,3360,490C3306.7,490,3253,490,3200,490C3146.7,490,3093,490,3040,490C2986.7,490,2933,490,2880,490C2826.7,490,2773,490,2720,490C2666.7,490,2613,490,2560,490C2506.7,490,2453,490,2400,490C2346.7,490,2293,490,2240,490C2186.7,490,2133,490,2080,490C2026.7,490,1973,490,1920,490C1866.7,490,1813,490,1760,490C1706.7,490,1653,490,1600,490C1546.7,490,1493,490,1440,490C1386.7,490,1333,490,1280,490C1226.7,490,1173,490,1120,490C1066.7,490,1013,490,960,490C906.7,490,853,490,800,490C746.7,490,693,490,640,490C586.7,490,533,490,480,490C426.7,490,373,490,320,490C266.7,490,213,490,160,490C106.7,490,53,490,27,490L0,490Z"/><defs><linearGradient id="sw-gradient-1" x1="0" x2="0" y1="1" y2="0"><stop stop-color="rgba(176.358, 125.839, 239.507, 1)" offset="0%"/><stop stop-color="rgba(140, 146, 172, 1)" offset="100%"/></linearGradient></defs><path style="transform:translate(0, 50px); opacity:0.9" fill="url(#sw-gradient-1)" d="M0,98L26.7,98C53.3,98,107,98,160,138.8C213.3,180,267,261,320,318.5C373.3,376,427,408,480,408.3C533.3,408,587,376,640,318.5C693.3,261,747,180,800,147C853.3,114,907,131,960,163.3C1013.3,196,1067,245,1120,294C1173.3,343,1227,392,1280,359.3C1333.3,327,1387,212,1440,204.2C1493.3,196,1547,294,1600,326.7C1653.3,359,1707,327,1760,294C1813.3,261,1867,229,1920,187.8C1973.3,147,2027,98,2080,138.8C2133.3,180,2187,310,2240,343C2293.3,376,2347,310,2400,245C2453.3,180,2507,114,2560,98C2613.3,82,2667,114,2720,130.7C2773.3,147,2827,147,2880,155.2C2933.3,163,2987,180,3040,204.2C3093.3,229,3147,261,3200,269.5C3253.3,278,3307,261,3360,220.5C3413.3,180,3467,114,3520,122.5C3573.3,131,3627,212,3680,204.2C3733.3,196,3787,98,3813,49L3840,0L3840,490L3813.3,490C3786.7,490,3733,490,3680,490C3626.7,490,3573,490,3520,490C3466.7,490,3413,490,3360,490C3306.7,490,3253,490,3200,490C3146.7,490,3093,490,3040,490C2986.7,490,2933,490,2880,490C2826.7,490,2773,490,2720,490C2666.7,490,2613,490,2560,490C2506.7,490,2453,490,2400,490C2346.7,490,2293,490,2240,490C2186.7,490,2133,490,2080,490C2026.7,490,1973,490,1920,490C1866.7,490,1813,490,1760,490C1706.7,490,1653,490,1600,490C1546.7,490,1493,490,1440,490C1386.7,490,1333,490,1280,490C1226.7,490,1173,490,1120,490C1066.7,490,1013,490,960,490C906.7,490,853,490,800,490C746.7,490,693,490,640,490C586.7,490,533,490,480,490C426.7,490,373,490,320,490C266.7,490,213,490,160,490C106.7,490,53,490,27,490L0,490Z"/></svg>