<?xml version="1.0" encoding="UTF-8"?>
<svg width="205.56mm" height="113.6mm" version="1.1" viewBox="0 0 205.56 113.6" xmlns="http://www.w3.org/2000/svg" xmlns:cc="http://creativecommons.org/ns#" xmlns:dc="http://purl.org/dc/elements/1.1/" xmlns:rdf="http://www.w3.org/1999/02/22-rdf-syntax-ns#" xmlns:xlink="http://www.w3.org/1999/xlink">
 <defs>
  <linearGradient id="linearGradient1145">
   <stop stop-color="#80e5ff" offset="0"/>
   <stop stop-color="#37abc8" offset="1"/>
  </linearGradient>
  <linearGradient id="linearGradient1147" x1="112.04" x2="110.08" y1="80.606" y2="133.15" gradientUnits="userSpaceOnUse" xlink:href="#linearGradient1145"/>
  <linearGradient id="linearGradient1155" x1="124.18" x2="124.8" y1="142.23" y2="153.74" gradientTransform="translate(2.4444 1.3837)" gradientUnits="userSpaceOnUse">
   <stop stop-color="#454837" offset="0"/>
   <stop stop-color="#454837" stop-opacity="0" offset="1"/>
  </linearGradient>
  <clipPath id="clipPath1235">
   <rect x="2.0806" y="62.001" width="205.56" height="113.6" fill="url(#linearGradient1239)"/>
  </clipPath>
  <linearGradient id="linearGradient1239" x1="112.04" x2="110.08" y1="80.606" y2="133.15" gradientTransform="translate(3.1124e-6)" gradientUnits="userSpaceOnUse" xlink:href="#linearGradient1145"/>
  <clipPath id="clipPath1241">
   <rect x="2.0806" y="62.001" width="205.56" height="113.6" fill="url(#linearGradient1239)"/>
  </clipPath>
  <clipPath id="clipPath1247">
   <rect x="2.0806" y="62.001" width="205.56" height="113.6" fill="url(#linearGradient1239)"/>
  </clipPath>
  <clipPath id="clipPath1253">
   <rect x="2.0806" y="62.001" width="205.56" height="113.6" fill="url(#linearGradient1239)"/>
  </clipPath>
  <clipPath id="clipPath1259">
   <rect x="2.0806" y="62.001" width="205.56" height="113.6" fill="url(#linearGradient1239)"/>
  </clipPath>
 </defs>
 <metadata>
  <rdf:RDF>
   <cc:Work rdf:about="">
    <dc:format>image/svg+xml</dc:format>
    <dc:type rdf:resource="http://purl.org/dc/dcmitype/StillImage"/>
    <dc:title/>
   </cc:Work>
  </rdf:RDF>
 </metadata>
 <g transform="translate(-2.0806 -62.001)">
  <rect x="2.0806" y="62.001" width="205.56" height="113.6" clip-path="url(#clipPath1259)" fill="url(#linearGradient1147)"/>
  <path d="m-5.5421 103.6 3.1729 2.021 3.1729-0.249 3.1729-2.685 3.1729-5.4032 3.1729 4.4994 3.1729 0.9118 3.1729 0.088 3.1729-3.5204 2.2886 1.1376 2.2887-5.2623 2.2886-0.5682 2.2886-1.7151 2.2887-6.4121 2.2886-1.2607 2.2886-2.4012 2.2887-2.1789 2.0805 2.074 2.0806 1.3494 2.0806 4.6841 2.0806 1.019 2.0805 2.7581 2.0806-1.6522 2.0806 4.6772 2.0806-1.0164 1.0923 7.4081 1.0923 0.02 1.0923 1.433 1.0923-4.5101 1.0923 5.9381 1.0923-3.7728 1.0923 4.0178 1.0923-0.559 1.7685 3.399 1.7685-6.5226 1.7684-0.2219 1.7685-0.3747 1.7685 2.0752 1.7685-2.0183 1.7685-5.272 1.7685 4.5652 1.0403-4.8516 1.0403-0.1064 1.0403-2.0893 1.0402 5.3243 1.0403-3.456 1.0403-3.488 1.0403 1.4042 1.0403 3.3868 0.9362-0.7275 0.9363-0.223 0.9363-3.3892 0.9362 3.4007 0.9363 1.1005 0.9362 0.4618 0.9363 1.8476 0.9363 0.9258 0.6761-3.1298 0.6762 9.4842 0.6762-2.723 0.6762 8.473 0.6762 3.003 0.6762-2.385 0.6762 1.134 0.6762 8.427 1.9765-0.709 1.9766-5.152 1.9765 3.379 1.977 0.932 1.976-2.923 1.977 1.83 1.976 2.001 1.977 0.459 2.236-2.609 2.237-2.711 2.237-0.308 2.236-3.154 2.237-3.546 2.236-1.254 2.237 2.399 2.237-6.166 0.416 2.887 0.416 7.364 0.416-3.103 0.416 6.845 0.416 1.806 0.416 1.737 0.416 3.869 0.417 3.208 3.433-4.645 3.433 6.123 3.432 3.86 3.433 1.456 3.433-2.229 3.433 3.036 3.433 5.512 3.433-2.567 2.445-0.036 2.445 4.82 2.444-1.789 2.445-5.255 2.445 1.075 2.444 0.361 2.445-1.655 2.445 0.29 2.288 3.945 2.289 1.746 2.289-1.464 2.288 4.222 2.289-1.7 2.288 1.73 2.289 5.606 2.289-2.478 2.34 4.594 2.341 1.693 2.341-6.344 2.34 1.584 2.341 1.128 2.341 0.849 2.34-3.403 2.341 1.224v28.436l-223.04 2.262z" clip-path="url(#clipPath1253)" fill="#22241c" opacity=".25724" stroke="#000" stroke-width=".26458px"/>
  <path d="m-5.0934 125.86c4.0045-1.727 7.1256-5.143 9.5548-5.909 2.4292-0.765 4.1664-2.371 5.4031-2.528s1.9728 0.273 2.3997 0.372c0.42695 0.098 0.54475 0.202 0.54475 0.202l4.1615-0.999 4.1615-1.256 4.1615 1.002 4.1614-1.964 2.0415 3.938 2.0415 2.629 2.0415 1.884 2.0415-0.513 3.7689 1.113 3.7689-2.62 3.7689-2.114 3.7689 0.083 4.083 1.381 4.0829 3.625 4.083 3.52 4.083 5.658 4.5541-2.633 4.5541-0.98 4.5541 1.967 4.554-1.334 4.5541 1.891 4.5541 2.796 4.5541 2.222 4.5545 0.63 3.533-2.588 3.533-0.802 3.534-2.878 3.533-1.691 4.161 4.182 4.162 1.292 4.161 3.416 4.162 1.515 2.355 3.699 2.356-0.181 2.356 4.824 2.355 2.702 6.268-0.551 6.268-3.982 6.268 0.998 6.268-3.765 4.489 7.485 4.489 2.441 4.489 4.392 4.489 7.434 4.712 0.487 4.711-0.192 4.711 0.7 4.711-1.362 2.827 2.549 2.826-0.681 2.827-0.135 2.827 4.848 3.594 7.469-223.04 3.38z" clip-path="url(#clipPath1247)" fill="url(#linearGradient1155)" opacity=".19936" stroke="#000" stroke-width=".26458px"/>
  <path d="m-4.1717 136c6.7521-1.688-11.208 2.844 14.74-5.2842 9.0865-2.8464 18.674-3.6083 28.09-1.9468 2.2208 0.3919 7.8406 5.6376 8.3435 6.1186 0.4831 0.46209 0.6845 1.1551 1.1125 1.6687 0.2374 0.28487 0.74884-0.0727 1.1125 0 1.6108 0.32216 3.1311 1.0051 4.728 1.3906 1.2903 0.31145 2.6274 0.43638 3.8936 0.83435 3.1368 0.98586 6.0097 2.7355 9.1778 3.6155 0.53594 0.14887 1.1126-0.0143 1.6687 0 3.0597 0.0785 6.1174 0.23561 9.1778 0.27812 5.7472 0.0798 11.495 0 17.243 0 0.70425 0 6.1848-0.36391 7.231 0 3.2992 1.1476 11.234 7.9174 12.237 8.6216 1.9785 1.3892 4.1071 2.5527 6.1186 3.8936 2.4683 1.6456 5.9453-0.26858 8.8997 0 3.2785 0.29805 6.4853 1.1371 9.7341 1.6687 1.8502 0.30277 3.7255 0.45864 5.5623 0.83435 4.2834 0.87614 6.1267 1.8159 10.012 2.2249 2.7941 0.29412 6.2781-2.2076 8.8997-0.83435 1.3469 0.70552 2.3991 1.8689 3.6155 2.7812 0.26741 0.20055 0.50806 0.48372 0.83435 0.55623 0.54299 0.12066 1.1139-0.0396 1.6687 0 3.5054 0.25039 7.9174 0.64372 11.403 1.3906 1.6278 0.34881 6.1251 1.6752 7.231 2.7812 0.97171 0.97172-0.12902 1.129 2.2249 1.3906 3.7867 0.42074 7.0812-0.36371 10.847 0.83434 1.9425 0.61807 3.386 2.0694 5.2842 2.7812 1.078 0.40425 1.9318 0.51113 3.0593 1.1125 1.1628 0.62014 5.8088 4.7912 4.728 6.9529-0.53486 1.0697-6.4625 0.83132-6.6748 0.83435-4.7275 0.0675-9.4612-0.22277-14.184 0-5.1141 0.24124-10.194 0.96541-15.296 1.3906-3.7979 0.3165-7.6144 0.41856-11.403 0.83435-22.833 2.506 0.0268 1.1052-22.806 2.503-14.909 0.91278-16.623-1.8048-47.28-3.0593-21.217-0.86821-42.458-1.0003-63.689-1.3906-4.0784-0.075-8.2924-1.0381-12.237 0-5.1403 1.3527-5.2908 1.7863-10.847 2.2249-1.5711 0.12403-3.152 0-4.728 0-1.6687 0.0927-3.3406 0.13933-5.0061 0.27812-1.0308 0.0859-2.6867 0.48604-3.6155 0.83435-0.12276 0.046-0.14701 0.27811-0.27812 0.27811-0.081638 0 0.12008-1.2201 0-2.7812-0.13584-1.7659-0.38831-3.5211-0.55623-5.2842-1.8562-19.49-1.6687-12.235-1.6687-24.196 0-1.6687-0.29-3.3628 0-5.0061 0.25996-1.4731 1.8674-4.2911 2.503-5.5623 0.058632-0.11726 0.37082-0.18541 0.27812-0.27812-0.092706-0.0927-0.27812 0.40923-0.27812 0.27812 0-0.62289 0.27812-1.6843 0.27812-2.503 0-1.6944 0.097017-1.9436-1.3906-3.0593z" clip-path="url(#clipPath1241)" fill="#164450" opacity=".32476"/>
  <path d="m0.31247 150.3c51.87-5.9369 43.746-11.561 70.306 4.0621s18.123 11.249 48.433 12.186c30.31 0.93741 88.59 9.0543 88.59 9.0543h-205.56z" clip-path="url(#clipPath1235)" fill="#1c2422" opacity=".18971"/>
 </g>
</svg>
